<?xml version="1.0" encoding="UTF-8"?>
<svg version="1.1" xmlns="http://www.w3.org/2000/svg" width="246" height="228">
<path d="M0 0 C3.85931544 0.82272423 5.43196839 1.91936716 8 5 C9.39539266 7.42116386 10.68627909 9.81967175 11.9375 12.3125 C15.4867332 19.20104543 19.21369491 25.96207121 23.0625 32.6875 C28.63395545 42.45662737 33.96006716 52.3421038 39.22897339 62.27609253 C43.49563949 70.31991048 47.80414568 78.33341236 52.26098633 86.27392578 C56.66835984 94.14695009 60.92004723 102.10430172 65.18017578 110.05761719 C65.74720215 111.1149707 66.31422852 112.17232422 66.8984375 113.26171875 C67.43339844 114.26050049 67.96835938 115.25928223 68.51953125 116.28833008 C69.76806045 118.57517272 71.06375643 120.81774081 72.3984375 123.0546875 C74.17877387 126.3287695 74.35815018 128.32896065 74 132 C69.75522127 133.02973761 65.62889781 133.16105421 61.28515625 133.16796875 C60.5517955 133.17129715 59.81843475 133.17462555 59.06285095 133.17805481 C57.51724878 133.18309985 55.97163579 133.18546389 54.42602539 133.18530273 C52.07354654 133.18748973 49.7215367 133.20567216 47.36914062 133.22460938 C45.86198076 133.22754379 44.35481868 133.22952827 42.84765625 133.23046875 C42.15060074 133.23765427 41.45354523 133.24483978 40.73536682 133.25224304 C36.44174223 133.23235204 32.87260387 132.90757239 29 131 C27.0847168 128.45654297 27.0847168 128.45654297 25.44921875 125.2421875 C25.14869598 124.66609741 24.84817322 124.09000732 24.5385437 123.49645996 C23.57015129 121.63132447 22.62900632 119.75382778 21.6875 117.875 C21.02869356 116.59479221 20.3677974 115.31565768 19.70483398 114.03759766 C18.71747309 112.13335286 17.731569 110.2285172 16.75312805 108.31967163 C13.8166316 102.59456561 10.67597828 97.00348193 7.43823242 91.44482422 C5 87.20374495 5 87.20374495 5 85 C4.34 85 3.68 85 3 85 C2.77570313 85.79277344 2.55140625 86.58554688 2.3203125 87.40234375 C0.61005387 92.06254553 -1.71424477 96.23179256 -4.125 100.5625 C-4.64852051 101.51286133 -5.17204102 102.46322266 -5.71142578 103.44238281 C-7.46931904 106.63102432 -9.23438827 109.81562657 -11 113 C-13.28803991 117.13665882 -15.57448421 121.27419681 -17.85992432 125.41229248 C-18.53921708 126.6420938 -19.21870259 127.87178867 -19.89837646 129.10137939 C-25.32860796 138.92679023 -30.68274525 148.79102535 -35.99169922 158.68261719 C-39.63471144 165.46974124 -43.30373089 172.24174009 -47 179 C-52.0751338 188.28131985 -57.09874277 197.58981584 -62.10546875 206.90820312 C-63.19968869 208.94416973 -64.29565856 210.97919702 -65.39355469 213.01318359 C-66.49640247 215.06367596 -67.5903457 217.11897501 -68.67675781 219.17822266 C-69.47484863 220.67748291 -69.47484863 220.67748291 -70.2890625 222.20703125 C-70.7629541 223.10526611 -71.2368457 224.00350098 -71.72509766 224.92895508 C-73 227 -73 227 -75 228 C-77.95458178 228.09926646 -80.88509302 228.13980616 -83.83984375 228.1328125 C-85.15668907 228.13424759 -85.15668907 228.13424759 -86.50013733 228.13571167 C-88.35873486 228.13639283 -90.21733476 228.13454302 -92.07592773 228.13037109 C-94.92241769 228.12502831 -97.76874939 228.13031496 -100.61523438 228.13671875 C-102.41927118 228.13605783 -104.22330789 228.13477639 -106.02734375 228.1328125 C-107.30713356 228.13584885 -107.30713356 228.13584885 -108.61277771 228.13894653 C-111.98885897 228.12554607 -114.77505771 228.07498076 -118 227 C-119.94140625 224.46875 -119.94140625 224.46875 -121 221 C-120.1725751 217.87788183 -118.57322062 215.26714221 -116.9375 212.5 C-116.47504883 211.67250244 -116.01259766 210.84500488 -115.53613281 209.99243164 C-114.54561567 208.22164239 -113.54545708 206.45621798 -112.53662109 204.69580078 C-110.54407154 201.20013313 -108.62632365 197.66635275 -106.70922852 194.12890625 C-105.21459609 191.37220091 -103.70960863 188.62133827 -102.203125 185.87109375 C-98.77299485 179.59633584 -95.38506892 173.29915156 -92 167 C-87.7590624 159.10831377 -83.49349601 151.23136013 -79.1875 143.375 C-75.72105244 137.04933574 -72.30098151 130.70100144 -68.9296875 124.32421875 C-68.57451553 123.65244095 -68.21934357 122.98066315 -67.85340881 122.28852844 C-67.12413468 120.90887064 -66.39489203 119.5291962 -65.66567993 118.14950562 C-59.73057886 106.92142857 -53.69241456 95.77475944 -47.39086914 84.74633789 C-44.32800213 79.37894984 -41.35828248 73.97892032 -38.5 68.5 C-34.57517979 60.98509712 -30.42482964 53.60892152 -26.23413086 46.23950195 C-23.1433313 40.80068092 -20.07423616 35.35107292 -17.04296875 29.87890625 C-16.71073303 29.27927063 -16.37849731 28.67963501 -16.03619385 28.06182861 C-14.42172073 25.14634081 -12.80991204 22.22942349 -11.20068359 19.31103516 C-7.59485345 12.79261464 -3.88449885 6.35653368 0 0 Z " fill="#1C53FA" transform="translate(121,0)"/>
<path d="M0 0 C1.36916565 0.00539291 1.36916565 0.00539291 2.76599121 0.01089478 C3.72198715 0.01074875 4.67798309 0.01060272 5.66294861 0.01045227 C8.83916452 0.01115181 12.01532259 0.01894614 15.19152832 0.02676392 C17.387283 0.02862795 19.58303809 0.03005192 21.77879333 0.03105164 C27.5705784 0.03487798 33.36233857 0.04470926 39.15411377 0.05575562 C45.05915998 0.06596724 50.9642102 0.07054872 56.8692627 0.07559204 C68.46497679 0.08633142 80.06067236 0.10340923 91.65637207 0.12442017 C92.15137207 1.60942017 92.15137207 1.60942017 92.65637207 3.12442017 C93.31637207 3.12442017 93.97637207 3.12442017 94.65637207 3.12442017 C95.21566406 4.15998047 95.21566406 4.15998047 95.78625488 5.21646118 C97.49209566 8.37374904 99.19922306 11.53033949 100.90637207 14.68692017 C101.49289551 15.77295532 102.07941895 16.85899048 102.68371582 17.97793579 C103.54416504 19.56831665 103.54416504 19.56831665 104.42199707 21.19082642 C104.9785498 22.22022339 105.53510254 23.24962036 106.10852051 24.31021118 C107.38532006 26.63160998 108.7051295 28.91248774 110.06262207 31.18692017 C111.83611017 34.45570215 112.01379935 36.46079053 111.65637207 40.12442017 C108.68637207 40.61942017 108.68637207 40.61942017 105.65637207 41.12442017 C107.63902242 44.84885983 109.62434672 48.57185866 111.6121521 52.29354858 C112.30649052 53.59407608 113.00028015 54.89489671 113.69351196 56.1960144 C118.07176375 64.41051139 122.5190594 72.55099552 127.43371582 80.46035767 C128.85948457 83.56698478 128.97307694 85.74298668 128.65637207 89.12442017 C126.74271214 91.03808009 123.91487219 90.25347235 121.368927 90.2633667 C120.4866745 90.26134247 119.604422 90.25931824 118.69543457 90.25723267 C117.34317276 90.25866776 117.34317276 90.25866776 115.96359253 90.26013184 C114.05194021 90.26081384 112.14028559 90.25895816 110.2286377 90.25479126 C107.30085026 90.24945566 104.37321712 90.25472915 101.44543457 90.26113892 C99.59126756 90.26047789 97.73710065 90.25919623 95.88293457 90.25723267 C94.56562851 90.26026901 94.56562851 90.26026901 93.22171021 90.2633667 C91.99561539 90.25863846 91.99561539 90.25863846 90.74475098 90.2538147 C90.02606842 90.2530191 89.30738586 90.25222351 88.56692505 90.25140381 C86.65637207 90.12442017 86.65637207 90.12442017 83.65637207 89.12442017 C82.2052002 86.84976196 82.2052002 86.84976196 80.68762207 83.82363892 C80.11527832 82.69893188 79.54293457 81.57422485 78.95324707 80.41543579 C78.3537017 79.21455682 77.75474182 78.01338535 77.15637207 76.81192017 C76.00313528 74.52263934 74.84679166 72.23492141 73.68762207 69.94863892 C73.3892041 69.35904388 73.09078613 68.76944885 72.7833252 68.1619873 C68.2955135 59.36546913 63.45270256 50.75520227 58.65637207 42.12442017 C57.6585672 42.1141127 56.66076233 42.10380524 55.63272095 42.09318542 C46.24438174 41.99556803 36.85611054 41.89284516 27.46788216 41.78508091 C22.64092445 41.72983918 17.8139607 41.67641718 12.98693848 41.62710571 C8.33146655 41.5794806 3.67606968 41.52713846 -0.9793129 41.47147942 C-2.75835433 41.45104745 -4.53741635 41.43233578 -6.31649399 41.41534615 C-8.80201434 41.39132073 -11.28739217 41.36126371 -13.77282715 41.32974243 C-14.51369568 41.32398697 -15.25456421 41.31823151 -16.0178833 41.31230164 C-21.11552361 41.23847233 -21.11552361 41.23847233 -23.34362793 40.12442017 C-24.77722168 37.69473267 -24.77722168 37.69473267 -25.34362793 34.12442017 C-24.13070968 30.51289579 -22.28456687 27.30363375 -20.40612793 23.99942017 C-19.89775391 23.07032837 -19.38937988 22.14123657 -18.86560059 21.18399048 C-17.38030404 18.48439226 -15.86770032 15.80227793 -14.34362793 13.12442017 C-13.94740234 12.42155884 -13.55117676 11.71869751 -13.14294434 10.99453735 C-6.93752581 0.01154626 -6.93752581 0.01154626 0 0 Z " fill="#1BA7FC" transform="translate(117.3436279296875,137.87557983398438)"/>
<path d="M0 0 C3.9357427 1.47961848 5.11876203 3.43936351 7.03125 7.109375 C7.58796387 8.16229736 8.14467773 9.21521973 8.71826172 10.30004883 C9.30623535 11.43853271 9.89420898 12.5770166 10.5 13.75 C11.12518039 14.9390714 11.75166247 16.12745924 12.37939453 17.31518555 C13.65472959 19.72984687 14.92529668 22.14691861 16.19238281 24.56591797 C18.70586973 29.34099995 21.28317772 34.07960714 23.875 38.8125 C24.35348389 39.68922363 24.83196777 40.56594727 25.32495117 41.46923828 C28.12724062 46.59858852 30.94696667 51.71813501 33.77734375 56.83203125 C34.78247811 58.64857928 35.78758307 60.46514357 36.79263306 62.28173828 C37.47069591 63.50723863 38.14889747 64.73266225 38.82723999 65.95800781 C42.6566803 72.87906305 46.4539368 79.81546359 50.1796875 86.79296875 C50.68809425 87.74502197 50.68809425 87.74502197 51.20677185 88.71630859 C52.82318504 91.74645315 54.43438431 94.77920211 56.0402832 97.81494141 C58.54305634 102.52485436 61.04890668 107.17455504 63.92578125 111.66796875 C66 115 66 115 66 117 C52.8 117 39.6 117 26 117 C14.86329426 96.60506901 14.86329426 96.60506901 10.37890625 88.30078125 C9.79326904 87.21667969 9.20763184 86.13257812 8.60424805 85.015625 C7.46513694 82.9056239 6.32724789 80.79496253 5.19067383 78.68359375 C4.67142334 77.72195312 4.15217285 76.7603125 3.6171875 75.76953125 C2.93052002 74.49493042 2.93052002 74.49493042 2.22998047 73.19458008 C1.23310831 71.41592112 0.13101476 69.69652214 -1 68 C-1 67.01 -1 66.02 -1 65 C-1.66 65 -2.32 65 -3 65 C-3.04643926 57.54139144 -3.08192792 50.08281431 -3.10362434 42.62409019 C-3.11404008 39.16031138 -3.12815859 35.69663185 -3.15087891 32.23291016 C-3.17686317 28.24643156 -3.18649109 24.25999248 -3.1953125 20.2734375 C-3.21079636 18.41687027 -3.21079636 18.41687027 -3.22659302 16.52279663 C-3.22674408 15.3620462 -3.22689514 14.20129578 -3.22705078 13.00537109 C-3.231492 11.98833099 -3.23593323 10.97129089 -3.24050903 9.9234314 C-2.96256891 6.54501829 -2.50083021 2.50083021 0 0 Z " fill="#1F97F9" transform="translate(125,10)"/>
<path d="M0 0 C3.85931544 0.82272423 5.43196839 1.91936716 8 5 C9.39539266 7.42116386 10.68627909 9.81967175 11.9375 12.3125 C15.4867332 19.20104543 19.21369491 25.96207121 23.0625 32.6875 C28.63395545 42.45662737 33.96006716 52.3421038 39.22897339 62.27609253 C43.49563949 70.31991048 47.80414568 78.33341236 52.26098633 86.27392578 C56.66835984 94.14695009 60.92004723 102.10430172 65.18017578 110.05761719 C65.74720215 111.1149707 66.31422852 112.17232422 66.8984375 113.26171875 C67.43339844 114.26050049 67.96835938 115.25928223 68.51953125 116.28833008 C69.76806045 118.57517272 71.06375643 120.81774081 72.3984375 123.0546875 C74.17877387 126.3287695 74.35815018 128.32896065 74 132 C69.75522127 133.02973761 65.62889781 133.16105421 61.28515625 133.16796875 C60.5517955 133.17129715 59.81843475 133.17462555 59.06285095 133.17805481 C57.51724878 133.18309985 55.97163579 133.18546389 54.42602539 133.18530273 C52.07354654 133.18748973 49.7215367 133.20567216 47.36914062 133.22460938 C45.86198076 133.22754379 44.35481868 133.22952827 42.84765625 133.23046875 C42.15060074 133.23765427 41.45354523 133.24483978 40.73536682 133.25224304 C36.44174223 133.23235204 32.87260387 132.90757239 29 131 C27.0847168 128.45654297 27.0847168 128.45654297 25.44921875 125.2421875 C25.14869598 124.66609741 24.84817322 124.09000732 24.5385437 123.49645996 C23.57015129 121.63132447 22.62900632 119.75382778 21.6875 117.875 C21.02869356 116.59479221 20.3677974 115.31565768 19.70483398 114.03759766 C18.71747309 112.13335286 17.731569 110.2285172 16.75312805 108.31967163 C13.8166316 102.59456561 10.67597828 97.00348193 7.43823242 91.44482422 C5 87.20374495 5 87.20374495 5 85 C4.34 85 3.68 85 3 85 C2.77570313 85.79277344 2.55140625 86.58554688 2.3203125 87.40234375 C0.61005387 92.06254553 -1.71424477 96.23179256 -4.125 100.5625 C-4.64852051 101.51286133 -5.17204102 102.46322266 -5.71142578 103.44238281 C-7.46931904 106.63102432 -9.23438827 109.81562657 -11 113 C-13.28803991 117.13665882 -15.57448421 121.27419681 -17.85992432 125.41229248 C-18.53921708 126.6420938 -19.21870259 127.87178867 -19.89837646 129.10137939 C-25.32860796 138.92679023 -30.68274525 148.79102535 -35.99169922 158.68261719 C-39.63471144 165.46974124 -43.30373089 172.24174009 -47 179 C-52.0751338 188.28131985 -57.09874277 197.58981584 -62.10546875 206.90820312 C-63.19968869 208.94416973 -64.29565856 210.97919702 -65.39355469 213.01318359 C-66.49640247 215.06367596 -67.5903457 217.11897501 -68.67675781 219.17822266 C-69.47484863 220.67748291 -69.47484863 220.67748291 -70.2890625 222.20703125 C-70.7629541 223.10526611 -71.2368457 224.00350098 -71.72509766 224.92895508 C-73 227 -73 227 -75 228 C-77.95458178 228.09926646 -80.88509302 228.13980616 -83.83984375 228.1328125 C-85.15668907 228.13424759 -85.15668907 228.13424759 -86.50013733 228.13571167 C-88.35873486 228.13639283 -90.21733476 228.13454302 -92.07592773 228.13037109 C-94.92241769 228.12502831 -97.76874939 228.13031496 -100.61523438 228.13671875 C-102.41927118 228.13605783 -104.22330789 228.13477639 -106.02734375 228.1328125 C-107.30713356 228.13584885 -107.30713356 228.13584885 -108.61277771 228.13894653 C-111.98885897 228.12554607 -114.77505771 228.07498076 -118 227 C-119.94140625 224.46875 -119.94140625 224.46875 -121 221 C-120.1725751 217.87788183 -118.57322062 215.26714221 -116.9375 212.5 C-116.47504883 211.67250244 -116.01259766 210.84500488 -115.53613281 209.99243164 C-114.54561567 208.22164239 -113.54545708 206.45621798 -112.53662109 204.69580078 C-110.54407154 201.20013313 -108.62632365 197.66635275 -106.70922852 194.12890625 C-105.21459609 191.37220091 -103.70960863 188.62133827 -102.203125 185.87109375 C-98.77299485 179.59633584 -95.38506892 173.29915156 -92 167 C-87.7590624 159.10831377 -83.49349601 151.23136013 -79.1875 143.375 C-75.72105244 137.04933574 -72.30098151 130.70100144 -68.9296875 124.32421875 C-68.57451553 123.65244095 -68.21934357 122.98066315 -67.85340881 122.28852844 C-67.12413468 120.90887064 -66.39489203 119.5291962 -65.66567993 118.14950562 C-59.73057886 106.92142857 -53.69241456 95.77475944 -47.39086914 84.74633789 C-44.32800213 79.37894984 -41.35828248 73.97892032 -38.5 68.5 C-34.57517979 60.98509712 -30.42482964 53.60892152 -26.23413086 46.23950195 C-23.1433313 40.80068092 -20.07423616 35.35107292 -17.04296875 29.87890625 C-16.71073303 29.27927063 -16.37849731 28.67963501 -16.03619385 28.06182861 C-14.42172073 25.14634081 -12.80991204 22.22942349 -11.20068359 19.31103516 C-7.59485345 12.79261464 -3.88449885 6.35653368 0 0 Z M1 3 C0.58339111 3.75804932 0.16678223 4.51609863 -0.26245117 5.29711914 C-7.28300234 18.06464556 -14.30377369 30.83034612 -21.5 43.5 C-36.68483521 70.25547568 -51.27178356 97.3417408 -65.8425293 124.43481445 C-69.51673826 131.2615508 -73.21639301 138.07373026 -76.9375 144.875 C-81.50536319 153.22498946 -86.01272829 161.60650948 -90.5 170 C-108.33333333 203.34688347 -108.33333333 203.34688347 -116.671875 217.515625 C-118.15715055 219.82444781 -118.15715055 219.82444781 -118 222 C-104.8 222 -91.6 222 -78 222 C-70.92520079 209.61910138 -63.99196452 197.22172402 -57.44775391 184.55371094 C-53.61185408 177.13822428 -49.6545137 169.79711298 -45.63818359 162.47802734 C-42.33657845 156.45908687 -39.07432029 150.4205334 -35.83349609 144.36865234 C-29.68397997 132.8885383 -23.38836304 121.50482382 -16.9375 110.19140625 C-13.88855119 104.83184647 -10.93918847 99.42031474 -8 94 C-7.31808193 92.75239989 -6.63584746 91.5049726 -5.953125 90.2578125 C-5.39109375 89.22398438 -4.8290625 88.19015625 -4.25 87.125 C-3.67765625 86.07570313 -3.1053125 85.02640625 -2.515625 83.9453125 C-1.1723664 81.33495945 -0.03322993 78.74515012 1 76 C1.66 76 2.32 76 3 76 C3.26554687 76.70165283 3.53109375 77.40330566 3.8046875 78.1262207 C5.07936707 81.19081491 6.55483714 84.05626865 8.125 86.98046875 C8.7449585 88.13708008 9.36491699 89.29369141 10.00366211 90.48535156 C10.66896197 91.71947982 11.33441061 92.95352787 12 94.1875 C12.676595 95.44624535 13.35310825 96.70503464 14.02954102 97.96386719 C19.26452428 107.69259714 24.59942496 117.3620507 30 127 C43.2 127 56.4 127 70 127 C68.53649358 123.34123395 67.0616624 120.10480539 65.19921875 116.66796875 C64.64073242 115.63414063 64.08224609 114.6003125 63.50683594 113.53515625 C62.90645508 112.43042969 62.30607422 111.32570313 61.6875 110.1875 C60.73862589 108.43422044 59.78975221 106.68094065 58.84091187 104.92764282 C57.8661034 103.12750328 56.88999586 101.32807356 55.91357422 99.52880859 C54.11607588 96.21574357 52.3249323 92.89927526 50.53515625 89.58203125 C45.32288335 79.92765483 40.07937369 70.29316868 34.73071289 60.71362305 C31.5079245 54.93565624 28.34420534 49.12678228 25.1875 43.3125 C20.31740945 34.34638355 15.33127802 25.45020802 10.27612305 16.5871582 C7.72808889 12.10986972 5.23583511 7.6418722 3 3 C2.34 3 1.68 3 1 3 Z " fill="#07080C" transform="translate(121,0)"/>
<path d="M0 0 C4.73194539 -0.22334904 9.46079744 -0.38615853 14.19677734 -0.49438477 C15.80539397 -0.53950884 17.41364414 -0.60083129 19.02099609 -0.67895508 C32.48296833 -1.31662745 32.48296833 -1.31662745 36.35449219 2.04345703 C37.9609375 4.53515625 37.9609375 4.53515625 39.10302734 7.05102539 C39.39902832 7.69418701 39.6950293 8.33734863 40 9 C40.66 9 41.32 9 42 9 C42.25579834 9.49177734 42.51159668 9.98355469 42.77514648 10.49023438 C43.99325877 12.82822846 45.21479442 15.16440467 46.4375 17.5 C46.88399902 18.35335937 47.33049805 19.20671875 47.79052734 20.0859375 C51.15354275 26.47768197 54.64623239 32.78317525 58.30639648 39.00976562 C61 43.6772936 61 43.6772936 61 47 C48.13 47 35.26 47 22 47 C17.64016754 39.3471026 13.2998806 31.68639569 9 24 C8.46761719 23.0517334 7.93523437 22.1034668 7.38671875 21.12646484 C5.94946423 18.55138383 4.53359822 15.96584217 3.125 13.375 C2.69074707 12.60115967 2.25649414 11.82731934 1.80908203 11.0300293 C1.42091309 10.305979 1.03274414 9.58192871 0.6328125 8.8359375 C0.29137207 8.21251465 -0.05006836 7.5890918 -0.40185547 6.94677734 C-1.19347703 4.37029149 -0.68392302 2.56762341 0 0 Z " fill="#10D7F4" transform="translate(180,175)"/>
<path d="M0 0 C1.36916565 0.00539291 1.36916565 0.00539291 2.76599121 0.01089478 C3.72198715 0.01074875 4.67798309 0.01060272 5.66294861 0.01045227 C8.83916452 0.01115181 12.01532259 0.01894614 15.19152832 0.02676392 C17.387283 0.02862795 19.58303809 0.03005192 21.77879333 0.03105164 C27.5705784 0.03487798 33.36233857 0.04470926 39.15411377 0.05575562 C45.05915998 0.06596724 50.9642102 0.07054872 56.8692627 0.07559204 C68.46497679 0.08633142 80.06067236 0.10340923 91.65637207 0.12442017 C92.15137207 1.60942017 92.15137207 1.60942017 92.65637207 3.12442017 C93.31637207 3.12442017 93.97637207 3.12442017 94.65637207 3.12442017 C95.21566406 4.15998047 95.21566406 4.15998047 95.78625488 5.21646118 C97.49209566 8.37374904 99.19922306 11.53033949 100.90637207 14.68692017 C101.49289551 15.77295532 102.07941895 16.85899048 102.68371582 17.97793579 C103.54416504 19.56831665 103.54416504 19.56831665 104.42199707 21.19082642 C104.9785498 22.22022339 105.53510254 23.24962036 106.10852051 24.31021118 C107.38532006 26.63160998 108.7051295 28.91248774 110.06262207 31.18692017 C111.83611017 34.45570215 112.01379935 36.46079053 111.65637207 40.12442017 C108.68637207 40.61942017 108.68637207 40.61942017 105.65637207 41.12442017 C107.63902242 44.84885983 109.62434672 48.57185866 111.6121521 52.29354858 C112.30649052 53.59407608 113.00028015 54.89489671 113.69351196 56.1960144 C118.07176375 64.41051139 122.5190594 72.55099552 127.43371582 80.46035767 C128.85948457 83.56698478 128.97307694 85.74298668 128.65637207 89.12442017 C126.74271214 91.03808009 123.91487219 90.25347235 121.368927 90.2633667 C120.4866745 90.26134247 119.604422 90.25931824 118.69543457 90.25723267 C117.34317276 90.25866776 117.34317276 90.25866776 115.96359253 90.26013184 C114.05194021 90.26081384 112.14028559 90.25895816 110.2286377 90.25479126 C107.30085026 90.24945566 104.37321712 90.25472915 101.44543457 90.26113892 C99.59126756 90.26047789 97.73710065 90.25919623 95.88293457 90.25723267 C94.56562851 90.26026901 94.56562851 90.26026901 93.22171021 90.2633667 C91.99561539 90.25863846 91.99561539 90.25863846 90.74475098 90.2538147 C90.02606842 90.2530191 89.30738586 90.25222351 88.56692505 90.25140381 C86.65637207 90.12442017 86.65637207 90.12442017 83.65637207 89.12442017 C82.2052002 86.84976196 82.2052002 86.84976196 80.68762207 83.82363892 C80.11527832 82.69893188 79.54293457 81.57422485 78.95324707 80.41543579 C78.3537017 79.21455682 77.75474182 78.01338535 77.15637207 76.81192017 C76.00313528 74.52263934 74.84679166 72.23492141 73.68762207 69.94863892 C73.3892041 69.35904388 73.09078613 68.76944885 72.7833252 68.1619873 C68.2955135 59.36546913 63.45270256 50.75520227 58.65637207 42.12442017 C57.6585672 42.1141127 56.66076233 42.10380524 55.63272095 42.09318542 C46.24438174 41.99556803 36.85611054 41.89284516 27.46788216 41.78508091 C22.64092445 41.72983918 17.8139607 41.67641718 12.98693848 41.62710571 C8.33146655 41.5794806 3.67606968 41.52713846 -0.9793129 41.47147942 C-2.75835433 41.45104745 -4.53741635 41.43233578 -6.31649399 41.41534615 C-8.80201434 41.39132073 -11.28739217 41.36126371 -13.77282715 41.32974243 C-14.51369568 41.32398697 -15.25456421 41.31823151 -16.0178833 41.31230164 C-21.11552361 41.23847233 -21.11552361 41.23847233 -23.34362793 40.12442017 C-24.77722168 37.69473267 -24.77722168 37.69473267 -25.34362793 34.12442017 C-24.13070968 30.51289579 -22.28456687 27.30363375 -20.40612793 23.99942017 C-19.89775391 23.07032837 -19.38937988 22.14123657 -18.86560059 21.18399048 C-17.38030404 18.48439226 -15.86770032 15.80227793 -14.34362793 13.12442017 C-13.94740234 12.42155884 -13.55117676 11.71869751 -13.14294434 10.99453735 C-6.93752581 0.01154626 -6.93752581 0.01154626 0 0 Z M-5.34362793 2.12442017 C-7.44666297 6.01866091 -9.54615575 9.91478411 -11.64245605 13.81265259 C-12.35536364 15.1370628 -13.06921891 16.46096337 -13.78405762 17.78433228 C-14.81425467 19.6919186 -15.84097505 21.60134115 -16.86706543 23.51113892 C-17.48500977 24.65800171 -18.1029541 25.8048645 -18.73962402 26.98648071 C-20.53399839 30.37824696 -20.53399839 30.37824696 -22.34362793 35.12442017 C4.38637207 35.45442017 31.11637207 35.78442017 58.65637207 36.12442017 C62.94637207 44.37442017 67.23637207 52.62442017 71.65637207 61.12442017 C76.59189397 70.16048424 76.59189397 70.16048424 81.65637207 79.12442017 C82.01110596 80.01250366 82.36583984 80.90058716 82.73132324 81.81558228 C84.5833446 84.5597447 84.5833446 84.5597447 88.57702637 84.69204712 C90.21176163 84.69125622 91.84663071 84.66304406 93.48059082 84.61270142 C94.34199173 84.60562668 95.20339264 84.59855194 96.09089661 84.59126282 C98.8427712 84.56326856 101.5926124 84.50052339 104.34387207 84.43692017 C106.20907706 84.41184368 108.07431394 84.38902938 109.9395752 84.36856079 C114.51262455 84.31342567 119.08415357 84.22712049 123.65637207 84.12442017 C123.05704156 79.97272878 121.65840941 76.9639996 119.59387207 73.32754517 C118.96553467 72.21097534 118.33719727 71.09440552 117.68981934 69.94400024 C117.35733185 69.36034698 117.02484436 68.77669373 116.68228149 68.175354 C114.96121147 65.15409971 113.2614955 62.12085127 111.55871582 59.08926392 C111.22202377 58.49131516 110.88533173 57.89336639 110.53843689 57.27729797 C107.68667477 52.20450504 104.92503007 47.08859281 102.21887207 41.93692017 C101.8482666 41.23148071 101.47766113 40.52604126 101.0958252 39.79922485 C100.28022279 38.24223827 99.46783321 36.68356907 98.65637207 35.12442017 C101.29637207 35.12442017 103.93637207 35.12442017 106.65637207 35.12442017 C106.06264597 31.29880361 104.93787313 28.41908697 103.07434082 25.03457642 C102.5542041 24.08518188 102.03406738 23.13578735 101.49816895 22.15762329 C100.95225098 21.17729126 100.40633301 20.19695923 99.84387207 19.18692017 C99.30955566 18.21045532 98.77523926 17.23399048 98.22473145 16.22793579 C96.72652112 13.50978053 95.22839823 10.80062833 93.65637207 8.12442017 C92.90258018 6.57939568 92.90258018 6.57939568 92.13356018 5.00315857 C89.39615328 1.82003578 89.39615328 1.82003578 85.56878662 1.40289307 C83.87308251 1.38551559 82.17684418 1.40142288 80.48156738 1.44326782 C79.55439407 1.44239166 78.62722076 1.4415155 77.67195129 1.44061279 C74.6086082 1.44479161 71.54745735 1.49145813 68.48449707 1.53848267 C66.3603027 1.54967374 64.23609284 1.55821434 62.11187744 1.56420898 C56.52192398 1.58711405 50.93290649 1.64605275 45.34332275 1.71243286 C39.63920759 1.77381863 33.93494112 1.80121614 28.23059082 1.83145142 C17.03877342 1.89579353 5.84765058 1.99819413 -5.34362793 2.12442017 Z " fill="#07090A" transform="translate(117.3436279296875,137.87557983398438)"/>
<path d="M0 0 C31.35 0 62.7 0 95 0 C95 0.33 95 0.66 95 1 C93.86074066 0.99032196 92.72148132 0.98064392 91.54769897 0.97067261 C80.80657203 0.88595048 70.06640025 0.85380897 59.32494164 0.87302971 C53.80253909 0.88122466 48.28146208 0.87095258 42.75927734 0.81835938 C37.42889434 0.76827422 32.100507 0.76685221 26.77000809 0.79904556 C24.73743009 0.80279431 22.70474167 0.78906274 20.67240524 0.75750351 C9.86585166 0.08825568 9.86585166 0.08825568 0.44830322 4.1897583 C-1.136762 6.78229274 -2.12061157 9.10191201 -3 12 C-3.556875 13.093125 -4.11375 14.18625 -4.6875 15.3125 C-5.3371875 16.6428125 -5.3371875 16.6428125 -6 18 C-7.43802564 20.51654488 -8.81793165 22.78421529 -10.6875 25 C-12.4572137 27.29800536 -12.4572137 27.29800536 -12 32 C-8.7 32 -5.4 32 -2 32 C-2 32.33 -2 32.66 -2 33 C-6.95 33 -11.9 33 -17 33 C-15.6860066 29.7150165 -14.4275533 26.76412437 -12.79296875 23.671875 C-12.37080078 22.87136719 -11.94863281 22.07085937 -11.51367188 21.24609375 C-11.07603516 20.42238281 -10.63839844 19.59867188 -10.1875 18.75 C-9.54844727 17.53763672 -9.54844727 17.53763672 -8.89648438 16.30078125 C-6.00041345 10.82409644 -3.01051275 5.41892295 0 0 Z " fill="#12609A" transform="translate(112,140)"/>
<path d="M0 0 C7.26 0 14.52 0 22 0 C22.81984375 1.50691406 23.6396875 3.01382813 24.484375 4.56640625 C25.57287895 6.56512471 26.66142272 8.56382148 27.75 10.5625 C28.28882813 11.55314453 28.82765625 12.54378906 29.3828125 13.56445312 C29.91132813 14.53447266 30.43984375 15.50449219 30.984375 16.50390625 C31.49935547 17.45023926 32.01433594 18.39657227 32.54492188 19.37158203 C33.78792891 21.6169199 35.07580616 23.82380477 36.390625 26.02734375 C38 29 38 29 38 32 C25.38301586 33.80242631 12.6482387 33.21284481 0 32 C0 31.67 0 31.34 0 31 C0.55349121 31.01047363 1.10698242 31.02094727 1.67724609 31.03173828 C18.00878361 32.05815735 18.00878361 32.05815735 33 27 C32.505 24.03 32.505 24.03 32 21 C31.34 21 30.68 21 30 21 C29.25 19.5 28.5 18 27.75 16.5 C27.27820313 15.59378906 26.80640625 14.68757812 26.3203125 13.75390625 C25 11 25 11 24.3046875 8.58984375 C23.50717772 6.0643961 22.99886716 4.76751679 21 3 C17.12600602 2.21982066 13.68162671 2.06289718 9.7265625 2.03515625 C6.35067558 2.00330826 3.30459264 1.6496645 0 1 C0 0.67 0 0.34 0 0 Z " fill="#10CFE9" transform="translate(186,141)"/>
<path d="M0 0 C13.2 0 26.4 0 40 0 C42.475 5.445 42.475 5.445 45 11 C44.34 11.33 43.68 11.66 43 12 C42.83991455 11.36263916 42.6798291 10.72527832 42.51489258 10.06860352 C41.37362348 7.00739781 40.39145739 5.25756553 38 3 C32.24357328 1.66258525 26.56934243 1.83079586 20.6875 1.9375 C19.07225268 1.93442396 17.45700766 1.92730623 15.84179688 1.91601562 C11.89302451 1.89720862 7.94822465 1.93376844 4 2 C3.67 2.99 3.34 3.98 3 5 C0 1.125 0 1.125 0 0 Z " fill="#0BB1D7" transform="translate(176,173)"/>
<path d="M0 0 C0.66 0 1.32 0 2 0 C5.22265625 5.2734375 5.22265625 5.2734375 6 7 C5.67 7.66 5.34 8.32 5 9 C2.33333333 9 -0.33333333 9 -3 9 C-3.66 10.65 -4.32 12.3 -5 14 C-6 11 -6 11 -4.78515625 8.30078125 C-4.21667969 7.31464844 -3.64820312 6.32851562 -3.0625 5.3125 C-2.49660156 4.31863281 -1.93070312 3.32476562 -1.34765625 2.30078125 C-0.90292969 1.54152344 -0.45820312 0.78226562 0 0 Z " fill="#2373DD" transform="translate(122,3)"/>
<path d="M0 0 C0.33 0 0.66 0 1 0 C1.35443365 4.25320385 0.49290822 5.67612238 -2 9 C-2 10.65 -2 12.3 -2 14 C1.3 14 4.6 14 8 14 C8 14.33 8 14.66 8 15 C3.05 15 -1.9 15 -7 15 C-5.57148766 11.42871914 -4.10525515 8.10247728 -2.375 4.6875 C-1.70597656 3.36298828 -1.70597656 3.36298828 -1.0234375 2.01171875 C-0.68570313 1.34785156 -0.34796875 0.68398437 0 0 Z " fill="#1A59E1" transform="translate(102,158)"/>
<path d="M0 0 C0.66 0.66 1.32 1.32 2 2 C1.67 2.66 1.34 3.32 1 4 C-10.22 4 -21.44 4 -33 4 C-33 3.67 -33 3.34 -33 3 C-28.7643915 2.83247504 -24.52859426 2.67190668 -20.29248047 2.51782227 C-18.85100177 2.4644041 -17.40959259 2.40907482 -15.96826172 2.35180664 C-13.89826447 2.26989003 -11.82811573 2.19481641 -9.7578125 2.12109375 C-8.5114502 2.0739624 -7.26508789 2.02683105 -5.98095703 1.97827148 C-3 2 -3 2 -1 3 C-0.67 2.01 -0.34 1.02 0 0 Z " fill="#173EF9" transform="translate(43,217)"/>
<path d="M0 0 C7.26 0 14.52 0 22 0 C22.33 0.99 22.66 1.98 23 3 C17.75553818 3.11026464 12.75639047 2.70328983 7.5625 2 C6.83095703 1.90460938 6.09941406 1.80921875 5.34570312 1.7109375 C3.563277 1.47794062 1.78155896 1.23953734 0 1 C0 0.67 0 0.34 0 0 Z " fill="#09CAF6" transform="translate(186,141)"/>
<path d="M0 0 C7.26 0.33 14.52 0.66 22 1 C22 1.33 22 1.66 22 2 C16.06 2 10.12 2 4 2 C3.67 2.99 3.34 3.98 3 5 C0 1.125 0 1.125 0 0 Z " fill="#0C8EC0" transform="translate(176,173)"/>
<path d="M0 0 C0.66 0.33 1.32 0.66 2 1 C-0.97 6.61 -3.94 12.22 -7 18 C-7.33 18 -7.66 18 -8 18 C-8 16.35 -8 14.7 -8 13 C-7.34 13 -6.68 13 -6 13 C-5.83177734 12.15695313 -5.83177734 12.15695313 -5.66015625 11.296875 C-4.90942661 8.68486892 -3.78832624 6.60528678 -2.4375 4.25 C-1.98246094 3.45078125 -1.52742188 2.6515625 -1.05859375 1.828125 C-0.53458984 0.92320312 -0.53458984 0.92320312 0 0 Z " fill="#2260EA" transform="translate(80,149)"/>
<path d="M0 0 C0.66 0 1.32 0 2 0 C3.17176518 2.12232979 4.33754785 4.24757791 5.5 6.375 C5.83386719 6.97828125 6.16773438 7.5815625 6.51171875 8.203125 C9 12.7734375 9 12.7734375 9 15 C8.34 15 7.68 15 7 15 C5.2734375 12.48046875 5.2734375 12.48046875 3.375 9.1875 C2.74335938 8.10855469 2.11171875 7.02960938 1.4609375 5.91796875 C0 3 0 3 0 0 Z " fill="#08CCE3" transform="translate(208,144)"/>
<path d="M0 0 C0.66 0.33 1.32 0.66 2 1 C-0.64 5.95 -3.28 10.9 -6 16 C-7.2077558 12.37673261 -6.54311128 11.35853631 -5 8 C-4.34 8 -3.68 8 -3 8 C-3.33 6.35 -3.66 4.7 -4 3 C-2.68 2.67 -1.36 2.34 0 2 C0 1.34 0 0.68 0 0 Z " fill="#2263E7" transform="translate(91,129)"/>
<path d="M0 0 C0.66 0.66 1.32 1.32 2 2 C1.34 3.32 0.68 4.64 0 6 C-0.66 6 -1.32 6 -2 6 C-2.66 7.65 -3.32 9.3 -4 11 C-5 8 -5 8 -4.00390625 5.95703125 C-3.52824219 5.24933594 -3.05257812 4.54164062 -2.5625 3.8125 C-2.08941406 3.09707031 -1.61632812 2.38164062 -1.12890625 1.64453125 C-0.75636719 1.10183594 -0.38382812 0.55914062 0 0 Z " fill="#1C6CED" transform="translate(121,6)"/>
<path d="M0 0 C0.66 0.33 1.32 0.66 2 1 C0.33333333 4.33333333 -1.33333333 7.66666667 -3 11 C-3.66 11 -4.32 11 -5 11 C-3.55049545 7.2089881 -1.84827434 3.6125362 0 0 Z " fill="#1644E2" transform="translate(100,42)"/>
<path d="M0 0 C0.66 0 1.32 0 2 0 C1.45276317 3.37462715 0.9451 5.08235 -1 8 C-1.66 8 -2.32 8 -3 8 C-1.125 2.25 -1.125 2.25 0 0 Z " fill="#1E54DF" transform="translate(69,98)"/>
<path d="M0 0 C0.33 0 0.66 0 1 0 C1.36923077 5.53846154 1.36923077 5.53846154 -0.5 7.875 C-1.2425 8.431875 -1.2425 8.431875 -2 9 C-2.66 8.67 -3.32 8.34 -4 8 C-2.68 5.36 -1.36 2.72 0 0 Z " fill="#1239E1" transform="translate(9,209)"/>
<path d="M0 0 C1 3 1 3 -0.4375 6.1875 C-1.2109375 7.5796875 -1.2109375 7.5796875 -2 9 C-2.99 9 -3.98 9 -5 9 C-3.35 6.03 -1.7 3.06 0 0 Z " fill="#1338DC" transform="translate(17,195)"/>
<path d="M0 0 C0.66 0 1.32 0 2 0 C1.40138258 2.35171131 0.73075648 4.6859378 0 7 C-0.99 7.495 -0.99 7.495 -2 8 C-1.125 1.125 -1.125 1.125 0 0 Z " fill="#1B6EF2" transform="translate(105,154)"/>
</svg>
